<svg viewBox="0 0 14.3333 10.6667" fill="none" xmlns="http://www.w3.org/2000/svg" xmlns:xlink="http://www.w3.org/1999/xlink" x="0" y="0"><path id="Icon_2" d="M1.3333,10.6665c-0.3666,0 -0.6805,-0.13 -0.9416,-0.391c-0.2611,-0.262 -0.3917,-0.575 -0.3917,-0.942v-8c0,-0.367 0.1306,-0.681 0.3917,-0.942c0.2611,-0.261 0.575,-0.391 0.9416,-0.391h4l1.3337,1.333h5.333c0.367,0 0.681,0.13 0.942,0.392c0.261,0.261 0.391,0.575 0.391,0.941h-7.216l-1.3337,-1.333h-3.45v8l1.6,-5.333h11.3997l-1.716,5.716c-0.089,0.289 -0.253,0.52 -0.492,0.692c-0.239,0.172 -0.503,0.258 -0.792,0.258zM2.7333,9.3335h8.5997l1.2,-4h-8.5997zM2.7333,9.3335l1.2,-4zM1.3333,2.6665v-1.333z" fill="currentColor"/></svg>