<svg viewBox="0 0 18.75 27.5" fill="none" xmlns="http://www.w3.org/2000/svg" xmlns:xlink="http://www.w3.org/1999/xlink" x="0" y="0"><path id="Icon_3" d="M2.5,27.5c-0.687,0 -1.276,-0.24 -1.766,-0.73c-0.489,-0.49 -0.734,-1.08 -0.734,-1.77v-22.5c0,-0.69 0.245,-1.28 0.734,-1.77c0.49,-0.49 1.079,-0.73 1.766,-0.73h12.5c0.687,0 1.276,0.24 1.766,0.73c0.489,0.49 0.734,1.08 0.734,1.77v3.88c0.375,0.14 0.677,0.37 0.906,0.68c0.229,0.32 0.344,0.67 0.344,1.06v2.5c0,0.4 -0.115,0.76 -0.344,1.07c-0.229,0.31 -0.531,0.54 -0.906,0.69v12.62c0,0.69 -0.245,1.28 -0.734,1.77c-0.49,0.49 -1.079,0.73 -1.766,0.73zM2.5,25h12.5v-22.5h-12.5zM2.5,25v-22.5zM8.75,6.25c0.354,0 0.651,-0.12 0.891,-0.36c0.239,-0.24 0.359,-0.54 0.359,-0.89c0,-0.35 -0.12,-0.65 -0.359,-0.89c-0.24,-0.24 -0.537,-0.36 -0.891,-0.36c-0.354,0 -0.651,0.12 -0.891,0.36c-0.239,0.24 -0.359,0.54 -0.359,0.89c0,0.35 0.12,0.65 0.359,0.89c0.24,0.24 0.537,0.36 0.891,0.36z" fill="currentColor"/></svg>