<svg viewBox="0 0 27 27" fill="none" xmlns="http://www.w3.org/2000/svg" x="0" y="0"><path id="Icon_7" d="M21.23,26.55l-9.08,-9.15c-0.5,0.2 -1.01,0.35 -1.52,0.45c-0.51,0.1 -1.06,0.15 -1.63,0.15c-2.5,0 -4.62,-0.875 -6.38,-2.625c-1.74,-1.75 -2.62,-3.875 -2.62,-6.375c0,-0.9 0.12,-1.756 0.38,-2.569c0.24,-0.812 0.59,-1.581 1.04,-2.306l5.48,5.475l2.7,-2.7l-5.48,-5.475c0.73,-0.45 1.5,-0.8 2.31,-1.05c0.81,-0.25 1.67,-0.375 2.57,-0.375c2.5,0 4.62,0.875 6.38,2.625c1.74,1.75 2.62,3.875 2.62,6.375c0,0.575 -0.05,1.119 -0.15,1.631c-0.1,0.513 -0.25,1.019 -0.45,1.519l9.15,9.075c0.3,0.3 0.45,0.663 0.45,1.087c0,0.425 -0.15,0.788 -0.45,1.088l-3.15,3.15c-0.3,0.3 -0.66,0.45 -1.09,0.45c-0.42,0 -0.79,-0.15 -1.08,-0.45zM22.31,23.362l1.02,-1.012l-9.6,-9.6c0.45,-0.5 0.77,-1.081 0.97,-1.744c0.2,-0.662 0.3,-1.331 0.3,-2.006c0,-1.5 -0.48,-2.806 -1.44,-3.919c-0.97,-1.112 -2.16,-1.781 -3.58,-2.006l2.77,2.775c0.3,0.3 0.45,0.65 0.45,1.05c0,0.4 -0.15,0.75 -0.45,1.05l-4.8,4.8c-0.3,0.3 -0.65,0.45 -1.05,0.45c-0.4,0 -0.75,-0.15 -1.05,-0.45l-2.77,-2.775c0.22,1.425 0.89,2.619 2,3.581c1.11,0.963 2.42,1.444 3.92,1.444c0.65,0 1.3,-0.1 1.95,-0.3c0.65,-0.2 1.24,-0.512 1.76,-0.938z" fill="currentColor"/></svg>