<svg viewBox="0 0 20 19" fill="none" xmlns="http://www.w3.org/2000/svg" xmlns:xlink="http://www.w3.org/1999/xlink" x="0" y="0"><path id="Icon_10" d="M2,19c-0.55,0 -1.02,-0.2 -1.41,-0.59c-0.39,-0.39 -0.59,-0.86 -0.59,-1.41v-11c0,-0.55 0.2,-1.02 0.59,-1.41c0.39,-0.39 0.86,-0.59 1.41,-0.59h4v-2c0,-0.55 0.2,-1.02 0.59,-1.41c0.39,-0.39 0.86,-0.59 1.41,-0.59h4c0.55,0 1.02,0.2 1.41,0.59c0.39,0.39 0.59,0.86 0.59,1.41v2h4c0.55,0 1.02,0.2 1.41,0.59c0.39,0.39 0.59,0.86 0.59,1.41v11c0,0.55 -0.2,1.02 -0.59,1.41c-0.39,0.39 -0.86,0.59 -1.41,0.59zM2,17h16v-11h-16zM8,4h4v-2h-4zM2,17v-11z" fill="currentColor"/></svg>