<svg viewBox="0 0 18.6667 23.3333" fill="none" xmlns="http://www.w3.org/2000/svg" xmlns:xlink="http://www.w3.org/1999/xlink" x="0" y="0"><path id="Icon" d="M9.333,11.6665c0.64,0 1.19,-0.228 1.65,-0.685c0.46,-0.457 0.68,-1.007 0.68,-1.648c0,-0.642 -0.22,-1.191 -0.68,-1.648c-0.46,-0.457 -1.01,-0.686 -1.65,-0.686c-0.64,0 -1.19,0.229 -1.65,0.686c-0.45,0.457 -0.68,1.006 -0.68,1.648c0,0.641 0.23,1.191 0.68,1.648c0.46,0.457 1.01,0.685 1.65,0.685zM9.333,20.2415c2.37,-2.178 4.13,-4.156 5.28,-5.935c1.15,-1.779 1.72,-3.359 1.72,-4.74c0,-2.119 -0.68,-3.855 -2.03,-5.206c-1.35,-1.351 -3.01,-2.027 -4.97,-2.027c-1.96,0 -3.62,0.676 -4.97,2.027c-1.35,1.351 -2.03,3.087 -2.03,5.206c0,1.381 0.57,2.961 1.72,4.74c1.15,1.779 2.91,3.757 5.28,5.935zM9.333,23.3335c-3.13,-2.664 -5.47,-5.138 -7.01,-7.423c-1.55,-2.285 -2.32,-4.399 -2.32,-6.344c0,-2.917 0.94,-5.24 2.81,-6.971c1.88,-1.73 4.05,-2.596 6.52,-2.596c2.47,0 4.64,0.866 6.52,2.596c1.88,1.731 2.81,4.054 2.81,6.971c0,1.945 -0.77,4.059 -2.32,6.344c-1.54,2.285 -3.88,4.759 -7.01,7.423z" fill="currentColor"/></svg>