<svg viewBox="0 0 16.6667 16.6667" fill="none" xmlns="http://www.w3.org/2000/svg" x="0" y="0"><path id="Icon_10" d="M8.3335,16.67c-1.15,0 -2.24,-0.22 -3.25,-0.66c-1.01,-0.44 -1.9,-1.03 -2.65,-1.78c-0.75,-0.75 -1.34,-1.63 -1.78,-2.65c-0.43,-1.01 -0.65,-2.09 -0.65,-3.25c0,-1.15 0.22,-2.23 0.65,-3.25c0.44,-1.01 1.03,-1.89 1.78,-2.64c0.75,-0.75 1.64,-1.35 2.65,-1.78c1.01,-0.44 2.1,-0.66 3.25,-0.66c1.15,0 2.24,0.22 3.25,0.66c1.01,0.43 1.9,1.03 2.65,1.78c0.75,0.75 1.34,1.63 1.78,2.64c0.43,1.02 0.65,2.1 0.65,3.25c0,1.16 -0.22,2.24 -0.65,3.25c-0.44,1.02 -1.03,1.9 -1.78,2.65c-0.75,0.75 -1.64,1.34 -2.65,1.78c-1.01,0.44 -2.1,0.66 -3.25,0.66zM7.5035,14.96v-1.63c-0.46,0 -0.85,-0.16 -1.18,-0.49c-0.33,-0.32 -0.49,-0.72 -0.49,-1.17v-0.84l-4,-4c-0.04,0.25 -0.08,0.5 -0.11,0.75c-0.04,0.25 -0.06,0.5 -0.06,0.75c0,1.68 0.56,3.16 1.66,4.42c1.1,1.26 2.5,2 4.18,2.21zM13.2535,12.83c0.57,-0.62 1,-1.32 1.3,-2.09c0.3,-0.77 0.45,-1.57 0.45,-2.41c0,-1.36 -0.38,-2.6 -1.14,-3.73c-0.76,-1.12 -1.77,-1.93 -3.03,-2.43v0.33c0,0.46 -0.16,0.85 -0.49,1.18c-0.33,0.32 -0.72,0.49 -1.18,0.49h-1.66v1.66c0,0.24 -0.08,0.44 -0.24,0.6c-0.16,0.16 -0.36,0.24 -0.6,0.24h-1.66v1.66h5c0.23,0 0.43,0.08 0.59,0.24c0.16,0.16 0.24,0.36 0.24,0.6v2.5h0.83c0.36,0 0.69,0.1 0.98,0.32c0.29,0.21 0.5,0.5 0.61,0.84z" fill="currentColor"/></svg>