<svg viewBox="0 0 25 25" fill="none" xmlns="http://www.w3.org/2000/svg" xmlns:xlink="http://www.w3.org/1999/xlink" x="0" y="0"><path id="Icon" d="M12.516,25c-1.719,0 -3.339,-0.33 -4.86,-0.98c-1.521,-0.66 -2.849,-1.56 -3.984,-2.69c-1.136,-1.14 -2.031,-2.47 -2.688,-3.99c-0.656,-1.52 -0.984,-3.14 -0.984,-4.86c0,-1.71 0.328,-3.33 0.984,-4.84c0.657,-1.51 1.552,-2.83 2.688,-3.97c1.135,-1.13 2.463,-2.03 3.984,-2.69c1.521,-0.65 3.141,-0.98 4.86,-0.98c1.718,0 3.333,0.33 4.843,0.98c1.511,0.66 2.834,1.56 3.969,2.69c1.136,1.14 2.031,2.46 2.688,3.97c0.656,1.51 0.984,3.13 0.984,4.84c0,1.72 -0.328,3.34 -0.984,4.86c-0.657,1.52 -1.552,2.85 -2.688,3.99c-1.135,1.13 -2.458,2.03 -3.969,2.69c-1.51,0.65 -3.125,0.98 -4.843,0.98zM12.5,22.44c0.542,-0.75 1.01,-1.53 1.406,-2.35c0.396,-0.81 0.719,-1.67 0.969,-2.59h-4.75c0.25,0.92 0.573,1.78 0.969,2.59c0.396,0.82 0.864,1.6 1.406,2.35zM9.25,21.94c-0.375,-0.69 -0.703,-1.4 -0.984,-2.14c-0.282,-0.74 -0.516,-1.51 -0.704,-2.3h-3.687c0.604,1.04 1.359,1.95 2.266,2.72c0.906,0.77 1.942,1.34 3.109,1.72zM15.75,21.94c1.167,-0.38 2.203,-0.95 3.109,-1.72c0.907,-0.77 1.662,-1.68 2.266,-2.72h-3.687c-0.188,0.79 -0.422,1.56 -0.704,2.3c-0.281,0.74 -0.609,1.45 -0.984,2.14zM2.812,15h4.25c-0.062,-0.42 -0.109,-0.83 -0.14,-1.23c-0.031,-0.41 -0.047,-0.83 -0.047,-1.27c0,-0.44 0.016,-0.86 0.047,-1.27c0.031,-0.4 0.078,-0.81 0.14,-1.23h-4.25c-0.104,0.42 -0.182,0.83 -0.234,1.23c-0.052,0.41 -0.078,0.83 -0.078,1.27c0,0.44 0.026,0.86 0.078,1.27c0.052,0.4 0.13,0.81 0.234,1.23zM9.562,15h5.876c0.062,-0.42 0.109,-0.83 0.14,-1.23c0.031,-0.41 0.047,-0.83 0.047,-1.27c0,-0.44 -0.016,-0.86 -0.047,-1.27c-0.031,-0.4 -0.078,-0.81 -0.14,-1.23h-5.876c-0.062,0.42 -0.109,0.83 -0.14,1.23c-0.031,0.41 -0.047,0.83 -0.047,1.27c0,0.44 0.016,0.86 0.047,1.27c0.031,0.4 0.078,0.81 0.14,1.23zM17.938,15h4.25c0.104,-0.42 0.182,-0.83 0.234,-1.23c0.052,-0.41 0.078,-0.83 0.078,-1.27c0,-0.44 -0.026,-0.86 -0.078,-1.27c-0.052,-0.4 -0.13,-0.81 -0.234,-1.23h-4.25c0.062,0.42 0.109,0.83 0.14,1.23c0.031,0.41 0.047,0.83 0.047,1.27c0,0.44 -0.016,0.86 -0.047,1.27c-0.031,0.4 -0.078,0.81 -0.14,1.23zM17.438,7.5h3.687c-0.604,-1.04 -1.359,-1.95 -2.266,-2.72c-0.906,-0.77 -1.942,-1.34 -3.109,-1.72c0.375,0.69 0.703,1.4 0.984,2.14c0.282,0.74 0.516,1.51 0.704,2.3zM10.125,7.5h4.75c-0.25,-0.92 -0.573,-1.78 -0.969,-2.59c-0.396,-0.82 -0.864,-1.6 -1.406,-2.35c-0.542,0.75 -1.01,1.53 -1.406,2.35c-0.396,0.81 -0.719,1.67 -0.969,2.59zM3.875,7.5h3.687c0.188,-0.79 0.422,-1.56 0.704,-2.3c0.281,-0.74 0.609,-1.45 0.984,-2.14c-1.167,0.38 -2.203,0.95 -3.109,1.72c-0.907,0.77 -1.662,1.68 -2.266,2.72z" fill="currentColor"/></svg>