<svg viewBox="0 0 21 21" fill="none" xmlns="http://www.w3.org/2000/svg" xmlns:xlink="http://www.w3.org/1999/xlink" x="0" y="0"><path id="Icon_3" d="M19.77,21c-2.43,0 -4.83,-0.53 -7.2,-1.59c-2.37,-1.059 -4.53,-2.561 -6.47,-4.506c-1.95,-1.944 -3.45,-4.103 -4.51,-6.475c-1.06,-2.372 -1.59,-4.773 -1.59,-7.204c0,-0.35 0.12,-0.642 0.35,-0.875c0.23,-0.233 0.53,-0.35 0.88,-0.35h4.72c0.27,0 0.52,0.092 0.73,0.277c0.21,0.185 0.34,0.404 0.38,0.656l0.76,4.084c0.04,0.311 0.03,0.573 -0.03,0.787c-0.06,0.214 -0.17,0.399 -0.32,0.554l-2.83,2.859c0.39,0.719 0.85,1.414 1.38,2.085c0.54,0.671 1.13,1.317 1.77,1.94c0.6,0.602 1.23,1.161 1.89,1.677c0.66,0.515 1.36,0.987 2.1,1.414l2.74,-2.741c0.18,-0.175 0.41,-0.307 0.69,-0.394c0.28,-0.088 0.56,-0.112 0.83,-0.073l4.03,0.817c0.27,0.077 0.49,0.218 0.67,0.423c0.17,0.204 0.26,0.432 0.26,0.685v4.725c0,0.35 -0.12,0.642 -0.35,0.875c-0.23,0.233 -0.53,0.35 -0.88,0.35zM3.53,7l1.92,-1.925l-0.49,-2.742h-2.6c0.1,0.798 0.24,1.585 0.41,2.363c0.18,0.778 0.43,1.546 0.76,2.304zM13.97,17.442c0.76,0.33 1.53,0.593 2.32,0.787c0.79,0.195 1.58,0.321 2.38,0.379v-2.566l-2.74,-0.554z" fill="currentColor"/></svg>