<svg viewBox="0 0 22.5 22.5" fill="none" xmlns="http://www.w3.org/2000/svg" xmlns:xlink="http://www.w3.org/1999/xlink" x="0" y="0"><path id="Icon" d="M8.25,15.75l1.75,-1.7812l-2.719,-2.7188l2.719,-2.7188l-1.75,-1.7812l-4.5,4.5zM14.25,15.75l4.5,-4.5l-4.5,-4.5l-1.75,1.7812l2.719,2.7188l-2.719,2.7188zM2.5,22.5c-0.688,0 -1.276,-0.2448 -1.766,-0.7344c-0.489,-0.4896 -0.734,-1.0781 -0.734,-1.7656v-17.5c0,-0.6875 0.245,-1.276 0.734,-1.7656c0.49,-0.4896 1.078,-0.7344 1.766,-0.7344h17.5c0.688,0 1.276,0.2448 1.766,0.7344c0.489,0.4896 0.734,1.0781 0.734,1.7656v17.5c0,0.6875 -0.245,1.276 -0.734,1.7656c-0.49,0.4896 -1.078,0.7344 -1.766,0.7344zM2.5,20h17.5v-17.5h-17.5zM2.5,2.5v17.5z" fill="currentColor"/></svg>