<svg viewBox="0 0 34 36" fill="none" xmlns="http://www.w3.org/2000/svg" xmlns:xlink="http://www.w3.org/1999/xlink" x="0" y="0"><defs><filter id="filter7_d_2128_684" x="-1" y="-1" width="36.02" height="38" filterUnits="userSpaceOnUse" color-interpolation-filters="sRGB">
<feFlood flood-opacity="0" result="BackgroundImageFix"/>
<feColorMatrix in="SourceAlpha" type="matrix" values="0 0 0 0 0 0 0 0 0 0 0 0 0 0 0 0 0 0 127 0" result="hardAlpha"/>
<feMorphology radius="1" operator="dilate" in="SourceAlpha" result="effect1_dropShadow_2128_684"/>
<feOffset/>
<feComposite in2="hardAlpha" operator="out"/>
<feColorMatrix type="matrix" values="0 0 0 0 1 0 0 0 0 1 0 0 0 0 1 0 0 0 0.2 0"/>
<feBlend mode="normal" in2="BackgroundImageFix" result="effect1_dropShadow_2128_684"/>
<feBlend mode="normal" in="SourceGraphic" in2="effect1_dropShadow_2128_684" result="shape"/>
</filter></defs><g id="Overlay_2">
<rect x="0" y="0" width="34" height="36" rx="6" fill="currentColor" fill-opacity="0.1"/>
<g id="Overlay+Shadow" filter="url(#filter7_d_2128_684)">
<rect x="0" y="0" width="34.02" height="36" rx="6" fill="currentColor" fill-opacity="0.01" shape-rendering="crispEdges"/>
</g>
<path id="Icon_9" d="M10,28c-0.55,0 -1.021,-0.2 -1.413,-0.59c-0.391,-0.39 -0.587,-0.86 -0.587,-1.41v-14c0,-0.55 0.196,-1.02 0.587,-1.41c0.392,-0.39 0.863,-0.59 1.413,-0.59h1v-2h2v2h8v-2h2v2h1c0.55,0 1.02,0.2 1.41,0.59c0.39,0.39 0.59,0.86 0.59,1.41v14c0,0.55 -0.2,1.02 -0.59,1.41c-0.39,0.39 -0.86,0.59 -1.41,0.59zM10,26h14v-10h-14zM10,14h14v-2h-14zM10,14v-2zM17,20c-0.283,0 -0.521,-0.1 -0.712,-0.29c-0.192,-0.19 -0.288,-0.43 -0.288,-0.71c0,-0.28 0.096,-0.52 0.288,-0.71c0.191,-0.19 0.429,-0.29 0.712,-0.29c0.283,0 0.521,0.1 0.712,0.29c0.192,0.19 0.288,0.43 0.288,0.71c0,0.28 -0.096,0.52 -0.288,0.71c-0.191,0.19 -0.429,0.29 -0.712,0.29zM13,20c-0.283,0 -0.521,-0.1 -0.713,-0.29c-0.191,-0.19 -0.287,-0.43 -0.287,-0.71c0,-0.28 0.096,-0.52 0.287,-0.71c0.192,-0.19 0.43,-0.29 0.713,-0.29c0.283,0 0.521,0.1 0.713,0.29c0.191,0.19 0.287,0.43 0.287,0.71c0,0.28 -0.096,0.52 -0.287,0.71c-0.192,0.19 -0.43,0.29 -0.713,0.29zM21,20c-0.283,0 -0.521,-0.1 -0.712,-0.29c-0.192,-0.19 -0.288,-0.43 -0.288,-0.71c0,-0.28 0.096,-0.52 0.288,-0.71c0.191,-0.19 0.429,-0.29 0.712,-0.29c0.28,0 0.52,0.1 0.71,0.29c0.19,0.19 0.29,0.43 0.29,0.71c0,0.28 -0.1,0.52 -0.29,0.71c-0.19,0.19 -0.43,0.29 -0.71,0.29zM17,24c-0.283,0 -0.521,-0.1 -0.712,-0.29c-0.192,-0.19 -0.288,-0.43 -0.288,-0.71c0,-0.28 0.096,-0.52 0.288,-0.71c0.191,-0.19 0.429,-0.29 0.712,-0.29c0.283,0 0.521,0.1 0.712,0.29c0.192,0.19 0.288,0.43 0.288,0.71c0,0.28 -0.096,0.52 -0.288,0.71c-0.191,0.19 -0.429,0.29 -0.712,0.29zM13,24c-0.283,0 -0.521,-0.1 -0.713,-0.29c-0.191,-0.19 -0.287,-0.43 -0.287,-0.71c0,-0.28 0.096,-0.52 0.287,-0.71c0.192,-0.19 0.43,-0.29 0.713,-0.29c0.283,0 0.521,0.1 0.713,0.29c0.191,0.19 0.287,0.43 0.287,0.71c0,0.28 -0.096,0.52 -0.287,0.71c-0.192,0.19 -0.43,0.29 -0.713,0.29zM21,24c-0.283,0 -0.521,-0.1 -0.712,-0.29c-0.192,-0.19 -0.288,-0.43 -0.288,-0.71c0,-0.28 0.096,-0.52 0.288,-0.71c0.191,-0.19 0.429,-0.29 0.712,-0.29c0.28,0 0.52,0.1 0.71,0.29c0.19,0.19 0.29,0.43 0.29,0.71c0,0.28 -0.1,0.52 -0.29,0.71c-0.19,0.19 -0.43,0.29 -0.71,0.29z" fill="currentColor"/>
</g></svg>