<svg viewBox="0 0 20 20" fill="none" xmlns="http://www.w3.org/2000/svg" xmlns:xlink="http://www.w3.org/1999/xlink" x="0" y="0"><path id="Vector" fill-rule="evenodd" clip-rule="evenodd" d="M15.83,0h-11.66c-2.3,0 -4.17,1.87 -4.17,4.17v11.66c0,2.3 1.87,4.17 4.17,4.17h11.66c2.31,0 4.17,-1.87 4.17,-4.17v-11.66c0,-2.3 -1.86,-4.17 -4.17,-4.17zM6.67,15.83h-2.5v-9.16h2.5zM5.42,5.61c-0.81,0 -1.46,-0.66 -1.46,-1.47l0.65,-1.47h0.81l1.46,0.66v0.81l-0.66,1.47zM16.67,15.83h-2.5v-4.67c0,-2.8 -3.34,-2.59 -3.34,0v4.67h-2.5v-9.16h2.5v1.47c1.17,-2.16 5.84,-2.32 5.84,2.06z" fill="currentColor"/></svg>