<svg viewBox="0 0 15 20" fill="none" xmlns="http://www.w3.org/2000/svg" xmlns:xlink="http://www.w3.org/1999/xlink" x="0" y="0"><path id="Icon_3" d="M7.5,20c-0.55,0 -1.021,-0.196 -1.412,-0.587c-0.392,-0.392 -0.588,-0.863 -0.588,-1.413h4c0,0.55 -0.196,1.021 -0.587,1.413c-0.392,0.391 -0.863,0.587 -1.413,0.587zM3.5,17v-2h8v2zM3.75,14c-1.15,-0.683 -2.062,-1.6 -2.737,-2.75c-0.675,-1.15 -1.013,-2.4 -1.013,-3.75c0,-2.083 0.729,-3.854 2.188,-5.313c1.458,-1.458 3.229,-2.187 5.312,-2.187c2.083,0 3.854,0.729 5.312,2.187c1.459,1.459 2.188,3.23 2.188,5.313c0,1.35 -0.337,2.6 -1.012,3.75c-0.676,1.15 -1.588,2.067 -2.738,2.75zM4.35,12h6.3c0.75,-0.533 1.329,-1.192 1.737,-1.975c0.409,-0.783 0.613,-1.625 0.613,-2.525c0,-1.533 -0.533,-2.833 -1.6,-3.9c-1.067,-1.067 -2.367,-1.6 -3.9,-1.6c-1.533,0 -2.833,0.533 -3.9,1.6c-1.067,1.067 -1.6,2.367 -1.6,3.9c0,0.9 0.204,1.742 0.612,2.525c0.409,0.783 0.988,1.442 1.738,1.975z" fill="currentColor"/></svg>