<svg viewBox="0 0 16.6667 13.5446" fill="none" xmlns="http://www.w3.org/2000/svg" xmlns:xlink="http://www.w3.org/1999/xlink" x="0" y="0"><path id="Vector_2" d="M5.243,13.5489c6.29,0 9.73,-5.22 9.73,-9.73c0,-0.15 0,-0.3 -0.01,-0.45c0.67,-0.48 1.24,-1.08 1.7,-1.77c-0.62,0.28 -1.28,0.46 -1.96,0.54c0.71,-0.43 1.25,-1.1 1.5,-1.89c-0.67,0.4 -1.4,0.68 -2.17,0.83c-1.06,-1.13 -2.74,-1.4 -4.11,-0.67c-1.36,0.73 -2.07,2.28 -1.72,3.79c-2.74,-0.14 -5.31,-1.44 -7.04,-3.57c-0.91,1.56 -0.45,3.56 1.06,4.56c-0.55,-0.02 -1.08,-0.16 -1.56,-0.43v0.05c0,1.62 1.15,3.03 2.75,3.35c-0.51,0.14 -1.03,0.16 -1.55,0.06c0.45,1.39 1.73,2.34 3.2,2.37c-1.43,1.13 -3.25,1.64 -5.06,1.42c1.56,1 3.38,1.53 5.24,1.53z" fill="currentColor"/></svg>