<svg viewBox="0 0 23.3333 18.6667" fill="none" xmlns="http://www.w3.org/2000/svg" xmlns:xlink="http://www.w3.org/1999/xlink" x="0" y="0"><path id="Icon_2" d="M2.337,18.6665c-0.65,0 -1.19,-0.228 -1.65,-0.685c-0.46,-0.457 -0.69,-1.006 -0.69,-1.648v-14c0,-0.642 0.23,-1.191 0.69,-1.648c0.46,-0.457 1,-0.685 1.65,-0.685h18.66c0.64,0 1.19,0.228 1.65,0.685c0.46,0.457 0.69,1.006 0.69,1.648v14c0,0.642 -0.23,1.191 -0.69,1.648c-0.46,0.457 -1.01,0.685 -1.65,0.685zM11.667,10.5005l-9.33,-5.834v11.667h18.66v-11.667zM11.667,8.1665l9.33,-5.833h-18.66zM2.337,4.6665v-2.333v2.333v11.667z" fill="currentColor"/></svg>