<svg viewBox="0 0 15 15" fill="none" xmlns="http://www.w3.org/2000/svg" xmlns:xlink="http://www.w3.org/1999/xlink" x="0" y="0"><path id="Icon_7" d="M5.5,10.5l1.1667,-1.19l-1.8125,-1.81l1.8125,-1.81l-1.1667,-1.19l-3,3zM9.5,10.5l3,-3l-3,-3l-1.1667,1.19l1.8125,1.81l-1.8125,1.81zM1.6667,15c-0.4584,0 -0.8507,-0.16 -1.1771,-0.49c-0.3264,-0.33 -0.4896,-0.72 -0.4896,-1.18v-11.66c0,-0.46 0.1632,-0.85 0.4896,-1.18c0.3264,-0.33 0.7187,-0.49 1.1771,-0.49h11.6666c0.4584,0 0.8507,0.16 1.1771,0.49c0.3264,0.33 0.4896,0.72 0.4896,1.18v11.66c0,0.46 -0.1632,0.85 -0.4896,1.18c-0.3264,0.33 -0.7187,0.49 -1.1771,0.49zM1.6667,13.33h11.6666v-11.66h-11.6666zM1.6667,1.67v11.66z" fill="currentColor"/></svg>