<svg viewBox="0 0 13.5 13.5" fill="none" xmlns="http://www.w3.org/2000/svg" xmlns:xlink="http://www.w3.org/1999/xlink" x="0" y="0"><path id="Icon_4" d="M9,13.5l-4.5,-1.575l-3.49,1.35c-0.25,0.1 -0.48,0.072 -0.69,-0.084c-0.21,-0.157 -0.32,-0.366 -0.32,-0.629v-10.5c0,-0.162 0.05,-0.306 0.14,-0.431c0.09,-0.125 0.22,-0.218 0.38,-0.281l3.98,-1.35l4.5,1.575l3.49,-1.35c0.25,-0.1 0.48,-0.072 0.69,0.084c0.21,0.157 0.32,0.366 0.32,0.629v10.5c0,0.162 -0.05,0.306 -0.14,0.431c-0.09,0.125 -0.22,0.218 -0.38,0.281zM8.25,11.663v-8.775l-3,-1.051v8.776zM9.75,11.663l2.25,-0.75v-8.888l-2.25,0.863zM1.5,11.475l2.25,-0.862v-8.776l-2.25,0.751zM9.75,2.888v8.775zM3.75,1.837v8.776z" fill="currentColor"/></svg>