<svg viewBox="0 0 30 30" fill="none" xmlns="http://www.w3.org/2000/svg" x="0" y="0"><path id="Icon_5" d="M10.2,13.425l3.225,-3.262l-2.1,-2.138l-1.65,1.65l-2.1,-2.1l1.613,-1.65l-1.688,-1.687l-3.262,3.262zM22.5,25.763l3.263,-3.263l-1.688,-1.688l-1.65,1.613l-2.1,-2.1l1.613,-1.65l-2.138,-2.1l-3.225,3.225zM23.4,4.5l2.138,2.137zM7.875,28.5h-6.375v-6.375l6.562,-6.563l-8.062,-8.062l7.5,-7.5l8.1,8.1l5.663,-5.7c0.299,-0.3 0.637,-0.525 1.012,-0.675c0.375,-0.15 0.763,-0.225 1.163,-0.225c0.399,0 0.787,0.075 1.162,0.225c0.375,0.15 0.712,0.375 1.012,0.675l1.988,2.025c0.3,0.3 0.525,0.637 0.675,1.013c0.15,0.374 0.225,0.762 0.225,1.162c0,0.4 -0.075,0.781 -0.225,1.144c-0.15,0.362 -0.375,0.694 -0.675,0.994l-5.662,5.7l8.062,8.062l-7.5,7.5l-8.062,-8.062zM4.5,25.5h2.1l14.7,-14.663l-2.137,-2.137l-14.663,14.7zM20.25,9.788l-1.087,-1.088l2.137,2.137z" fill="currentColor"/></svg>