<svg viewBox="0 0 27 27" fill="none" xmlns="http://www.w3.org/2000/svg" x="0" y="0"><path id="Icon" d="M9.9,18.9l2.1,-2.137l-3.262,-3.263l3.262,-3.262l-2.1,-2.138l-5.4,5.4zM17.1,18.9l5.4,-5.4l-5.4,-5.4l-2.1,2.138l3.263,3.262l-3.263,3.263zM3,27c-0.825,0 -1.531,-0.294 -2.119,-0.881c-0.587,-0.588 -0.881,-1.294 -0.881,-2.119v-21c0,-0.825 0.294,-1.531 0.881,-2.119c0.588,-0.587 1.294,-0.881 2.119,-0.881h21c0.825,0 1.531,0.294 2.119,0.881c0.587,0.588 0.881,1.294 0.881,2.119v21c0,0.825 -0.294,1.531 -0.881,2.119c-0.588,0.587 -1.294,0.881 -2.119,0.881zM3,24h21v-21h-21zM3,3v21z" fill="currentColor"/></svg>