<svg viewBox="0 0 32 36" fill="none" xmlns="http://www.w3.org/2000/svg" xmlns:xlink="http://www.w3.org/1999/xlink" x="0" y="0"><defs><filter id="filter8_d_2128_684" x="-1" y="-1" width="34.02" height="38" filterUnits="userSpaceOnUse" color-interpolation-filters="sRGB">
<feFlood flood-opacity="0" result="BackgroundImageFix"/>
<feColorMatrix in="SourceAlpha" type="matrix" values="0 0 0 0 0 0 0 0 0 0 0 0 0 0 0 0 0 0 127 0" result="hardAlpha"/>
<feMorphology radius="1" operator="dilate" in="SourceAlpha" result="effect1_dropShadow_2128_684"/>
<feOffset/>
<feComposite in2="hardAlpha" operator="out"/>
<feColorMatrix type="matrix" values="0 0 0 0 1 0 0 0 0 1 0 0 0 0 1 0 0 0 0.2 0"/>
<feBlend mode="normal" in2="BackgroundImageFix" result="effect1_dropShadow_2128_684"/>
<feBlend mode="normal" in="SourceGraphic" in2="effect1_dropShadow_2128_684" result="shape"/>
</filter></defs><g id="Overlay_3">
<rect x="0" y="0" width="32" height="36" rx="6" fill="currentColor" fill-opacity="0.1"/>
<g id="Overlay+Shadow_2" filter="url(#filter8_d_2128_684)">
<rect x="0" y="0" width="32.02" height="36" rx="6" fill="currentColor" fill-opacity="0.01" shape-rendering="crispEdges"/>
</g>
<path id="Icon_10" d="M16,28c-2.32,-0.58 -4.23,-1.91 -5.74,-3.99c-1.51,-2.07 -2.26,-4.38 -2.26,-6.91v-6.1l8,-3l8,3v6.1c0,2.53 -0.75,4.84 -2.26,6.91c-1.51,2.08 -3.42,3.41 -5.74,3.99zM16,25.9c1.62,-0.5 2.97,-1.49 4.05,-2.96c1.08,-1.48 1.72,-3.12 1.9,-4.94h-5.95v-7.88l-6,2.26v4.72c0,0.18 0,0.33 0,0.45c0,0.12 0.02,0.27 0.05,0.45h5.95z" fill="currentColor"/>
</g></svg>