<svg viewBox="0 0 22.5 33" fill="none" xmlns="http://www.w3.org/2000/svg" x="0" y="0"><path id="Icon_3" d="M3,33c-0.83,0 -1.53,-0.294 -2.12,-0.881c-0.59,-0.588 -0.88,-1.294 -0.88,-2.119v-27c0,-0.825 0.29,-1.531 0.88,-2.119c0.59,-0.587 1.29,-0.881 2.12,-0.881h15c0.83,0 1.53,0.294 2.12,0.881c0.59,0.588 0.88,1.294 0.88,2.119v4.65c0.45,0.175 0.81,0.45 1.09,0.825c0.27,0.375 0.41,0.8 0.41,1.275v3c0,0.475 -0.14,0.9 -0.41,1.275c-0.28,0.375 -0.64,0.65 -1.09,0.825v15.15c0,0.825 -0.29,1.531 -0.88,2.119c-0.59,0.587 -1.29,0.881 -2.12,0.881zM3,30h15v-27h-15zM3,30v-27zM10.5,7.5c0.43,0 0.78,-0.144 1.07,-0.431c0.29,-0.288 0.43,-0.644 0.43,-1.069c0,-0.425 -0.14,-0.781 -0.43,-1.069c-0.29,-0.287 -0.64,-0.431 -1.07,-0.431c-0.43,0 -0.78,0.144 -1.07,0.431c-0.29,0.288 -0.43,0.644 -0.43,1.069c0,0.425 0.14,0.781 0.43,1.069c0.29,0.287 0.64,0.431 1.07,0.431z" fill="currentColor"/></svg>