<svg viewBox="0 0 18.75 25" fill="none" xmlns="http://www.w3.org/2000/svg" xmlns:xlink="http://www.w3.org/1999/xlink" x="0" y="0"><path id="Icon_5" d="M9.375,25c-0.69,0 -1.28,-0.24 -1.77,-0.73c-0.49,-0.49 -0.73,-1.08 -0.73,-1.77h5c0,0.69 -0.24,1.28 -0.73,1.77c-0.49,0.49 -1.08,0.73 -1.77,0.73zM4.375,21.25v-2.5h10v2.5zM4.685,17.5c-1.43,-0.85 -2.58,-2 -3.42,-3.44c-0.84,-1.44 -1.27,-3 -1.27,-4.68c0,-2.61 0.92,-4.82 2.74,-6.65c1.82,-1.82 4.04,-2.73 6.64,-2.73c2.6,0 4.82,0.91 6.64,2.73c1.82,1.83 2.74,4.04 2.74,6.65c0,1.68 -0.43,3.24 -1.27,4.68c-0.84,1.44 -1.99,2.59 -3.42,3.44zM5.435,15h7.88c0.94,-0.67 1.66,-1.49 2.17,-2.47c0.51,-0.98 0.77,-2.03 0.77,-3.15c0,-1.92 -0.67,-3.55 -2,-4.88c-1.34,-1.33 -2.96,-2 -4.88,-2c-1.92,0 -3.54,0.67 -4.88,2c-1.33,1.33 -2,2.96 -2,4.88c0,1.12 0.26,2.17 0.77,3.15c0.51,0.98 1.23,1.8 2.17,2.47z" fill="currentColor"/></svg>