<svg viewBox="0 0 20 20" fill="none" xmlns="http://www.w3.org/2000/svg" xmlns:xlink="http://www.w3.org/1999/xlink" x="0" y="0"><path id="Icon_9" d="M10,20c-1.38,0 -2.68,-0.26 -3.9,-0.79c-1.22,-0.52 -2.28,-1.23 -3.18,-2.13c-0.89,-0.9 -1.61,-1.96 -2.13,-3.18c-0.53,-1.22 -0.79,-2.52 -0.79,-3.9c0,-1.38 0.26,-2.68 0.79,-3.9c0.52,-1.22 1.24,-2.28 2.13,-3.18c0.9,-0.89 1.96,-1.61 3.18,-2.13c1.22,-0.53 2.52,-0.79 3.9,-0.79c1.38,0 2.68,0.26 3.9,0.79c1.22,0.52 2.28,1.24 3.18,2.13c0.9,0.9 1.61,1.96 2.13,3.18c0.53,1.22 0.79,2.52 0.79,3.9c0,1.38 -0.26,2.68 -0.79,3.9c-0.52,1.22 -1.23,2.28 -2.13,3.18c-0.9,0.9 -1.96,1.61 -3.18,2.13c-1.22,0.53 -2.52,0.79 -3.9,0.79zM9,17.95v-1.95c-0.55,0 -1.02,-0.2 -1.41,-0.59c-0.39,-0.39 -0.59,-0.86 -0.59,-1.41v-1l-4.8,-4.8c-0.05,0.3 -0.1,0.6 -0.14,0.9c-0.04,0.3 -0.06,0.6 -0.06,0.9c0,2.02 0.66,3.78 1.99,5.3c1.32,1.52 2.99,2.4 5.01,2.65zM15.9,15.4c0.68,-0.75 1.2,-1.59 1.56,-2.51c0.36,-0.93 0.54,-1.89 0.54,-2.89c0,-1.63 -0.45,-3.12 -1.36,-4.47c-0.91,-1.35 -2.12,-2.33 -3.64,-2.93v0.4c0,0.55 -0.2,1.02 -0.59,1.41c-0.39,0.39 -0.86,0.59 -1.41,0.59h-2v2c0,0.28 -0.1,0.52 -0.29,0.71c-0.19,0.19 -0.43,0.29 -0.71,0.29h-2v2h6c0.28,0 0.52,0.1 0.71,0.29c0.19,0.19 0.29,0.43 0.29,0.71v3h1c0.43,0 0.82,0.13 1.18,0.39c0.35,0.26 0.59,0.59 0.72,1.01z" fill="currentColor"/></svg>