<svg viewBox="0 0 16.6667 13.3333" fill="none" xmlns="http://www.w3.org/2000/svg" x="0" y="0"><path id="Icon_11" d="M1.667,13.33c-0.46,0 -0.85,-0.16 -1.18,-0.49c-0.32,-0.32 -0.49,-0.72 -0.49,-1.17v-10c0,-0.46 0.17,-0.85 0.49,-1.18c0.33,-0.33 0.72,-0.49 1.18,-0.49h13.33c0.46,0 0.85,0.16 1.18,0.49c0.33,0.33 0.49,0.72 0.49,1.18v10c0,0.45 -0.16,0.85 -0.49,1.17c-0.33,0.33 -0.72,0.49 -1.18,0.49zM8.337,7.5l-6.67,-4.17v8.34h13.33v-8.34zM8.337,5.83l6.66,-4.16h-13.33zM1.667,3.33v-1.66v1.66v8.34z" fill="currentColor"/></svg>